<svg width="24" height="24" viewBox="0 0 24 24" fill="none" xmlns="http://www.w3.org/2000/svg">
<path fill-rule="evenodd" clip-rule="evenodd" d="M20 24C22.2 24 24 22.2 24 20V4C24 1.8 22.2 0 20 0H4C1.8 0 0 1.8 0 4V20C0 22.2 1.8 24 4 24H20Z" fill="#563D7C"/>
<path fill-rule="evenodd" clip-rule="evenodd" d="M12.9718 5.0004H6.42358V19.0004H12.6133C13.4813 19.0004 14.2286 18.8984 14.8589 18.6945C15.4892 18.4906 16.0025 18.2161 16.4063 17.871C16.8102 17.5259 17.1046 17.1141 17.2933 16.6357C17.482 16.1612 17.5763 15.6475 17.5763 15.0984C17.5763 14.1416 17.3612 13.3494 16.9347 12.7141C16.5082 12.0827 15.8779 11.6749 15.0476 11.4906V11.4514C15.6666 11.1769 16.1421 10.7847 16.4743 10.2827C16.8064 9.78079 16.9725 9.17687 16.9725 8.47098C16.9725 7.30628 16.6064 6.43961 15.8779 5.86314C15.1495 5.28667 14.1796 5.0004 12.9718 5.0004ZM8.78246 10.8631H12.6321C13.1983 10.8631 13.67 10.6984 14.0475 10.3612C14.4249 10.0239 14.6136 9.54549 14.6136 8.91804C14.6136 8.21216 14.4437 7.71412 14.1041 7.42785C13.7644 7.14157 13.2737 6.99647 12.6321 6.99647H8.78246V10.8631ZM8.78246 17.0004H12.9529C13.67 17.0004 14.2286 16.8082 14.6211 16.42C15.0174 16.0357 15.2175 15.4867 15.2175 14.7808C15.2175 14.0867 15.0212 13.5573 14.6211 13.1808C14.2211 12.8043 13.67 12.6239 12.9529 12.6239H8.78246V17.0004Z" fill="white"/>
</svg>
