<svg width="24" height="24" viewBox="0 0 24 24" fill="none" xmlns="http://www.w3.org/2000/svg">
<path fill-rule="evenodd" clip-rule="evenodd" d="M3.74229 21.6L1.9032 0H22.0972L20.2552 21.6015L12.0002 24L3.74229 21.6ZM17.9328 9.77697L18.165 7.06348L18.3929 4.41598H12.0001H5.60726L5.77314 6.91947L15.6393 6.89098L15.4489 9.58197L6.02556 9.69747L6.27943 12.2115L15.234 12.186L14.846 15.8625L11.9987 16.6605L11.9972 16.662L9.15419 15.864L8.96379 13.6575H6.40204L6.76697 17.9115L11.9958 19.4175L12.0001 19.416L17.2318 17.9115L17.9328 9.77697Z" fill="#2196F3"/>
<path fill-rule="evenodd" clip-rule="evenodd" d="M17.9328 9.77698L18.165 7.06348L18.3929 4.41599H12.0001H5.60724L5.77312 6.91948L15.6393 6.89098L15.4489 9.58198L6.02554 9.69748L6.27941 12.2115L15.234 12.186L14.846 15.8625L11.9986 16.6605L11.9972 16.662L9.15417 15.864L8.96377 13.6575H6.40202L6.76695 17.9115L11.9958 19.4175L12.0001 19.416L17.2318 17.9115L17.9328 9.77698Z" fill="white"/>
</svg>
