<svg width="24" height="24" viewBox="0 0 24 24" fill="none" xmlns="http://www.w3.org/2000/svg">
<path fill-rule="evenodd" clip-rule="evenodd" d="M20 24C22.2 24 24 22.2 24 20V4C24 1.8 22.2 0 20 0H4C1.8 0 0 1.8 0 4V20C0 22.2 1.8 24 4 24H20Z" fill="white"/>
<path d="M12.0005 12.0001C12.0005 11.2322 12.3055 10.4958 12.8485 9.95285C13.3914 9.40989 14.1279 9.10486 14.8957 9.10486C15.6636 9.10486 16.4 9.40989 16.943 9.95285C17.4859 10.4958 17.791 11.2322 17.791 12.0001C17.791 12.768 17.4859 13.5044 16.943 14.0473C16.4 14.5903 15.6636 14.8953 14.8957 14.8953C14.1279 14.8953 13.3914 14.5903 12.8485 14.0473C12.3055 13.5044 12.0005 12.768 12.0005 12.0001V12.0001Z" fill="#1ABCFE"/>
<path d="M6.21002 17.7906C6.21002 17.0227 6.51506 16.2863 7.05802 15.7434C7.60098 15.2004 8.3374 14.8954 9.10526 14.8954H12.0005V17.7906C12.0005 18.5585 11.6955 19.2949 11.1525 19.8378C10.6095 20.3808 9.87312 20.6858 9.10526 20.6858C8.3374 20.6858 7.60098 20.3808 7.05802 19.8378C6.51506 19.2949 6.21002 18.5585 6.21002 17.7906V17.7906Z" fill="#0ACF83"/>
<path d="M12.0005 3.31439V9.10487H14.8957C15.6636 9.10487 16.4 8.79984 16.943 8.25687C17.4859 7.71391 17.791 6.9775 17.791 6.20963C17.791 5.44177 17.4859 4.70535 16.943 4.16239C16.4 3.61943 15.6636 3.31439 14.8957 3.31439H12.0005Z" fill="#FF7262"/>
<path d="M6.21002 6.20963C6.21002 6.9775 6.51506 7.71391 7.05802 8.25687C7.60098 8.79984 8.3374 9.10487 9.10526 9.10487H12.0005V3.31439H9.10526C8.3374 3.31439 7.60098 3.61943 7.05802 4.16239C6.51506 4.70535 6.21002 5.44177 6.21002 6.20963V6.20963Z" fill="#F24E1E"/>
<path d="M6.21002 12.0001C6.21002 12.768 6.51506 13.5044 7.05802 14.0473C7.60098 14.5903 8.3374 14.8953 9.10526 14.8953H12.0005V9.10486H9.10526C8.3374 9.10486 7.60098 9.40989 7.05802 9.95285C6.51506 10.4958 6.21002 11.2322 6.21002 12.0001V12.0001Z" fill="#A259FF"/>
</svg>
