<svg width="24" height="24" viewBox="0 0 24 24" fill="none" xmlns="http://www.w3.org/2000/svg">
<path fill-rule="evenodd" clip-rule="evenodd" d="M11.9989 0.296387C5.37328 0.296387 0 5.66895 0 12.2968C0 17.5979 3.43804 22.096 8.20651 23.6835C8.8069 23.7933 9.02569 23.4227 9.02569 23.1045C9.02569 22.8194 9.01538 22.065 9.00949 21.0639C5.67163 21.7888 4.96737 19.455 4.96737 19.455C4.4215 18.0686 3.63474 17.6995 3.63474 17.6995C2.5452 16.9555 3.71725 16.9702 3.71725 16.9702C4.9217 17.0549 5.55524 18.2071 5.55524 18.2071C6.62562 20.0407 8.36416 19.511 9.04779 19.2038C9.15682 18.4288 9.46696 17.8999 9.80951 17.6001C7.14497 17.2965 4.34342 16.2674 4.34342 11.6691C4.34342 10.3586 4.8112 9.28822 5.57882 8.44915C5.45505 8.14564 5.04325 6.92569 5.69668 5.27334C5.69668 5.27334 6.7037 4.95067 8.99622 6.50284C9.95316 6.2369 10.9801 6.1043 12.0004 6.09915C13.0199 6.1043 14.0461 6.2369 15.0045 6.50284C17.2956 4.95067 18.3011 5.27334 18.3011 5.27334C18.956 6.92569 18.5442 8.14564 18.4212 8.44915C19.1903 9.28822 19.6544 10.3586 19.6544 11.6691C19.6544 16.2792 16.8484 17.2936 14.1758 17.5905C14.606 17.961 14.9898 18.6933 14.9898 19.813C14.9898 21.4168 14.975 22.7111 14.975 23.1045C14.975 23.4257 15.1916 23.7991 15.8001 23.682C20.5649 22.0915 24 17.5971 24 12.2968C24 5.66895 18.6267 0.296387 11.9989 0.296387Z" fill="black"/>
</svg>
