<svg width="24" height="24" viewBox="0 0 24 24" fill="none" xmlns="http://www.w3.org/2000/svg">
<path fill-rule="evenodd" clip-rule="evenodd" d="M20 24C22.2 24 24 22.2 24 20V4C24 1.8 22.2 0 20 0H4C1.8 0 0 1.8 0 4V20C0 22.2 1.8 24 4 24H20Z" fill="white"/>
<path d="M12 20.6856L15.4745 9.99799H8.53052L12 20.6856Z" fill="#E24329"/>
<path d="M3.66376 9.99799L2.60569 13.245C2.50994 13.5398 2.61334 13.8653 2.86606 14.0491L12 20.6855L3.66376 9.99799Z" fill="#FCA326"/>
<path d="M3.66376 9.99799H8.53044L6.43596 3.56137C6.32876 3.23207 5.86158 3.23207 5.75053 3.56137L3.66376 9.99799Z" fill="#E24329"/>
<path d="M20.3412 9.99799L21.3955 13.245C21.4913 13.5398 21.3879 13.8653 21.1351 14.0491L12 20.6856L20.3412 9.99799Z" fill="#FCA326"/>
<path d="M20.3412 9.99799H15.4745L17.5652 3.56137C17.6724 3.23207 18.1395 3.23207 18.2505 3.56137L20.3412 9.99799Z" fill="#E24329"/>
<path d="M12 20.6856L15.4746 9.99799H20.3412L12 20.6856Z" fill="#FC6D26"/>
<path d="M12 20.6856L3.66376 9.99799H8.5305L12 20.6856Z" fill="#FC6D26"/>
</svg>
