<svg width="24" height="24" viewBox="0 0 24 24" fill="none" xmlns="http://www.w3.org/2000/svg">
<path fill-rule="evenodd" clip-rule="evenodd" d="M3.7354 21.6L1.89478 0H22.1056L20.2621 21.6015L12.0002 24L3.7354 21.6ZM12.0002 7.06359H18.114L18.3392 4.41609H12.0002H5.65978L6.34405 12.4276H12.0002H15.117L14.8225 15.8641L12.0002 16.6606L11.9973 16.6621L9.1779 15.8656L8.98878 13.6576H6.448L6.81035 17.9131L11.9959 19.4191L12.0002 19.4176L17.1886 17.9131L17.883 9.77709H12.0002H8.65819L8.42721 7.06359H12.0002Z" fill="#FF5722"/>
<path fill-rule="evenodd" clip-rule="evenodd" d="M12.0002 7.06361H18.114L18.3392 4.41611H12.0002H5.65979L6.34407 12.4276H12.0002H15.117L14.8225 15.8641L12.0002 16.6606L11.9973 16.6621L9.17791 15.8656L8.9888 13.6576H6.44801L6.81036 17.9131L11.9959 19.4191L12.0002 19.4176L17.1886 17.9131L17.883 9.77711H12.0002H8.65821L8.42723 7.06361H12.0002Z" fill="white"/>
</svg>
