<svg width="24" height="24" viewBox="0 0 24 24" fill="none" xmlns="http://www.w3.org/2000/svg">
<path fill-rule="evenodd" clip-rule="evenodd" d="M20 24C22.2 24 24 22.2 24 20V4C24 1.8 22.2 0 20 0H4C1.8 0 0 1.8 0 4V20C0 22.2 1.8 24 4 24H20Z" fill="#F7DF1E"/>
<path fill-rule="evenodd" clip-rule="evenodd" d="M8.29222 18.9446L6.5246 20.0561C7.03624 21.1838 8.04416 22.118 9.78058 22.118C11.7033 22.118 13.0211 21.0547 13.0211 18.7187V11.0183H10.8505V18.6868C10.8505 19.8145 10.4008 20.1044 9.68753 20.1044C8.94344 20.1044 8.63323 19.5728 8.29222 18.9446ZM15.9674 18.7512L14.2 19.8145C14.8356 21.1195 16.1381 22.1182 18.1537 22.1182C20.2158 22.1182 21.7508 21.0067 21.7508 18.9767C21.7508 17.0919 20.7119 16.2542 18.8668 15.4326L18.3242 15.1909C17.394 14.772 16.9909 14.4981 16.9909 13.8214C16.9909 13.2738 17.394 12.8549 18.0297 12.8549C18.6499 12.8549 19.0529 13.1288 19.425 13.8214L21.1151 12.6938C20.402 11.3888 19.4097 10.8894 18.0297 10.8894C16.0915 10.8894 14.8512 12.1782 14.8512 13.8698C14.8512 15.7064 15.89 16.5764 17.4561 17.269L17.9986 17.5108C18.991 17.9618 19.5801 18.2357 19.5801 19.009C19.5801 19.6534 19.0066 20.1206 18.1072 20.1206C17.0374 20.1206 16.4327 19.5407 15.9674 18.7512Z" fill="white"/>
</svg>
