<svg width="24" height="24" viewBox="0 0 24 24" fill="none" xmlns="http://www.w3.org/2000/svg">
<path d="M11.4357 11.9396C11.4357 11.6634 11.3917 11.408 11.3038 11.1735C11.216 10.939 11.09 10.738 10.9263 10.5696C10.7624 10.4013 10.5639 10.2692 10.3305 10.1731C10.0967 10.0771 9.83438 9.93233 9.54326 9.93233C9.19744 9.93233 8.89562 10.0889 8.63793 10.2092C8.38023 10.3293 8.16791 10.4944 8.00117 10.7047C7.83406 10.9152 7.70969 11.1629 7.62783 11.4483C7.54598 11.7337 7.50505 12.0447 7.50505 12.381C7.50505 12.7292 7.53829 13.0512 7.60513 13.3455C7.6718 13.6395 7.78561 13.8947 7.9463 14.1113C8.10714 14.3275 8.3164 14.4957 8.57428 14.6156C8.83215 14.7357 9.15222 14.8279 9.53432 14.8279C10.2379 14.8279 10.8323 14.6242 11.3177 14.282C11.2696 13.9338 11.1456 13.657 10.9463 13.4527C10.6984 13.5458 10.4791 13.6125 10.289 13.6534C10.0987 13.6938 9.93087 13.7142 9.78595 13.7142C9.49588 13.7142 9.28716 13.6404 9.16047 13.4914C9.03391 13.3429 8.96449 13.1672 8.95219 12.9004H11.318C11.3962 12.6477 11.4357 12.3062 11.4357 11.9396ZM8.94318 12.002C8.96121 11.6954 9.01717 11.3672 9.11028 11.2321C9.20358 11.0969 9.34636 11.0293 9.53917 11.0293C9.73774 11.0293 9.88677 11.1012 9.98595 11.2454C10.0853 11.3896 10.135 11.6802 10.135 11.9025L10.1352 12.002H8.94318Z" fill="url(#paint0_linear_537_262)"/>
<path d="M7.04099 13.6245H6.79527C6.52811 13.6245 6.42749 13.484 6.42749 13.2019V8.01589C6.42749 7.70405 6.33744 7.48512 6.22214 7.35897C6.10686 7.23315 5.90673 7.23441 5.62168 7.23441H5.06677L5.00137 7.23315V7.2385L5.00083 8.01036V13.4528C5.00083 13.8856 5.09805 14.2023 5.27102 14.4039C5.44419 14.6051 5.73675 14.7056 6.14921 14.7056C6.43444 14.7056 6.75898 14.6755 7.12282 14.6153C7.14105 14.5545 7.15017 14.4244 7.15017 14.2248C7.15017 14.0247 7.11374 13.825 7.04099 13.6245Z" fill="url(#paint1_linear_537_262)"/>
<path d="M14.3753 11.876C15.1823 12.1584 15.5855 12.6422 15.5855 13.3266C15.5855 13.7772 15.4182 14.1348 15.0849 14.3992C14.7511 14.6639 14.2752 14.8282 13.6562 14.8282C13.0375 14.8282 12.464 14.6487 11.9366 14.3542C11.9423 14.198 11.9836 14.0266 12.0595 13.8406C12.1353 13.6546 12.2247 13.5068 12.3278 13.3988C12.8132 13.6508 13.2349 13.777 13.5929 13.777C13.7623 13.777 13.8933 13.7486 13.9841 13.6914C14.0751 13.6344 14.1208 13.5579 14.1208 13.4618C14.1208 13.2811 13.9809 13.146 13.7019 13.0559L13.2011 12.8667C12.4429 12.5904 12.0637 12.1402 12.0637 11.5149C12.0637 11.0583 12.2229 10.6964 12.5417 10.4287C12.86 10.1613 13.2891 9.93114 13.8288 9.93114C14.0956 9.93114 14.3903 9.96867 14.7113 10.0437C15.0329 10.119 15.2966 10.3043 15.5029 10.4061C15.5151 10.5745 15.4813 10.7593 15.4029 10.9605C15.3241 11.1619 15.227 11.3045 15.1116 11.3887C14.6015 11.1603 14.1773 11.0461 13.8372 11.0461C13.7157 11.0461 13.6237 11.0731 13.5597 11.1274C13.4962 11.1816 13.4646 11.2505 13.4646 11.3347C13.4646 11.4789 13.5799 11.593 13.8106 11.6771L14.3753 11.876Z" fill="url(#paint2_linear_537_262)"/>
<path d="M18.4063 11.876C19.2133 12.1584 19.6167 12.6422 19.6167 13.3266C19.6167 13.7772 19.4494 14.1348 19.1156 14.3992C18.7821 14.6639 18.3064 14.8282 17.6871 14.8282C17.0679 14.8282 16.4951 14.6487 15.9676 14.3542C15.9733 14.198 16.0146 14.0266 16.0903 13.8406C16.1661 13.6546 16.2558 13.5068 16.3586 13.3988C16.8435 13.6508 17.2654 13.777 17.6235 13.777C17.7928 13.777 17.9237 13.7486 18.0149 13.6914C18.1062 13.6344 18.1516 13.5579 18.1516 13.4618C18.1516 13.2811 18.0117 13.146 17.7327 13.0559L17.2316 12.8667C16.4735 12.5904 16.0945 12.1402 16.0945 11.5149C16.0945 11.0583 16.2537 10.6964 16.5722 10.4287C16.8907 10.1613 17.3199 9.93114 17.8596 9.93114C18.1266 9.93114 18.4206 9.96867 18.7423 10.0437C19.0636 10.119 19.3276 10.3043 19.5338 10.4061C19.5459 10.5745 19.5122 10.7593 19.4337 10.9605C19.3547 11.1619 19.2579 11.3045 19.1422 11.3887C18.6324 11.1603 18.2081 11.0461 17.8682 11.0461C17.7465 11.0461 17.6549 11.0731 17.5905 11.1274C17.5269 11.1816 17.4956 11.2505 17.4956 11.3347C17.4956 11.4789 17.6107 11.593 17.8414 11.6771L18.4063 11.876Z" fill="url(#paint3_linear_537_262)"/>
<path d="M4.07385 7.29639H4.07381V7.29776L4.01561 7.29744C3.91787 7.2969 3.82959 7.29654 3.7591 7.29672L3.75877 7.29672L3.75844 7.29672C3.47379 7.29423 3.23138 7.4497 3.00942 7.62341C2.77244 7.80956 2.57555 8.04781 2.51393 8.36314C2.48342 8.52395 2.48436 8.66675 2.48532 8.81289V8.81289C2.48549 8.83855 2.48566 8.86432 2.48566 8.8903V10.2381C2.48566 10.7292 2.30255 11.098 2.05094 11.3406C1.97618 11.4145 1.86309 11.4819 1.73126 11.5438C1.60888 11.6014 1.46649 11.656 1.3158 11.7077V12.2312C1.59282 12.3105 1.8647 12.4181 2.02299 12.5585C2.29114 12.7928 2.48544 13.1315 2.48544 13.5728V15.1469C2.48544 15.6607 2.6076 16.0374 2.95006 16.2952C3.30208 16.56 3.71279 16.6926 4.1849 16.7056L4.44968 16.7039V16.0194C4.21681 15.9466 4.07808 15.8614 3.97485 15.7625C3.77735 15.5833 3.67176 15.2978 3.67176 14.9169V13.6464C3.66482 13.2185 3.59565 12.8934 3.44687 12.6622C3.29902 12.4329 3.00506 12.2246 2.5521 12.0419L2.42739 11.9915L2.54965 11.9356C3.04606 11.7082 3.37177 11.4151 3.53684 11.0598C3.63315 10.8504 3.67178 10.5626 3.67178 10.19V9.02463C3.67178 8.63301 3.76232 8.34477 3.93296 8.17496C4.02811 8.08022 4.1899 8.00824 4.39966 7.9519L4.40724 7.94986L4.68491 7.9518V7.29632H4.07385V7.29639Z" fill="url(#paint4_linear_537_262)"/>
<path d="M20.3389 7.29598C20.6234 7.29366 20.8659 7.44912 21.088 7.62266C21.3207 7.80573 21.4871 8.05363 21.5851 8.36856C21.64 8.54794 21.6483 8.72039 21.6483 8.88956V10.2374C21.6483 10.7247 21.7924 11.0952 22.0468 11.3398C22.1842 11.4758 22.3736 11.5978 22.6843 11.707V12.2309C22.4094 12.3124 22.2293 12.4214 22.0746 12.5581C21.8036 12.7948 21.6485 13.1347 21.6485 13.5722V15.1462C21.6485 15.6565 21.4925 16.035 21.1474 16.2949C20.7954 16.5598 20.3845 16.6919 19.9124 16.7048L19.6846 16.7031V16.0191C19.9175 15.9452 20.0227 15.8586 20.1227 15.762C20.3171 15.5859 20.4623 15.3026 20.4623 14.9162V13.6459C20.4691 13.2128 20.5033 12.8906 20.6504 12.6618C20.7986 12.4323 21.0926 12.2243 21.545 12.0414L21.6696 11.991L21.5474 11.9351C21.0512 11.7079 20.7253 11.4147 20.5603 11.0592C20.5135 10.9573 20.4885 10.835 20.4756 10.6891C20.4627 10.5431 20.4621 10.3775 20.4621 10.1895V9.02414C20.4621 8.6267 20.3319 8.34126 20.1641 8.17461C20.0605 8.07139 19.9408 7.98976 19.6842 7.92824V7.29653C19.8776 7.29818 20.015 7.29737 20.1373 7.29665C20.2067 7.29625 20.2712 7.29587 20.3384 7.29598L20.3387 7.29598L20.3389 7.29598Z" fill="url(#paint5_linear_537_262)"/>
<path fill-rule="evenodd" clip-rule="evenodd" d="M19.5684 7.1796L19.6269 7.18021C19.8511 7.18256 20.0014 7.18167 20.135 7.18088C20.2046 7.18047 20.2697 7.18009 20.3383 7.18021C20.6655 7.17764 20.9356 7.35666 21.1594 7.53149L21.1595 7.5316C21.4125 7.73059 21.5914 7.99915 21.6956 8.33425L21.6957 8.3345C21.7558 8.53071 21.764 8.7171 21.764 8.88955V10.2374C21.764 10.7021 21.9011 11.0392 22.1273 11.2567L22.1276 11.257L22.1279 11.2572C22.2556 11.3836 22.4385 11.5022 22.7606 11.6108L22.8 11.6241V12.3186L22.7576 12.3303C22.4748 12.4085 22.3001 12.5134 22.151 12.645L22.1508 12.6452C21.9075 12.8577 21.7642 13.1644 21.7642 13.5722V15.1462C21.7642 15.6825 21.5985 16.1 21.217 16.3873C20.8433 16.6687 20.4081 16.8072 19.9145 16.8205L19.9135 16.8205L19.5688 16.818V15.9327L19.6105 15.9206C19.8522 15.8501 19.9479 15.7701 20.0428 15.6781L20.0436 15.6774L20.0443 15.6768C20.2134 15.524 20.3465 15.2724 20.3465 14.9162V13.645L20.3466 13.6445C20.3533 13.214 20.3857 12.8593 20.553 12.5992L20.5531 12.5991C20.7057 12.3627 20.9854 12.1594 21.3827 11.9843C20.9332 11.7571 20.6214 11.4658 20.4552 11.1078L20.4551 11.1076C20.4004 10.9886 20.3737 10.8514 20.3602 10.6993C20.3468 10.5473 20.3463 10.3764 20.3463 10.1895V9.02413C20.3463 8.65168 20.2246 8.39783 20.0825 8.25671L20.0824 8.25664C19.9904 8.16493 19.8835 8.08947 19.614 8.03096L19.5684 8.02105V7.1796ZM21.088 7.62265C20.8658 7.44911 20.6234 7.29365 20.3389 7.29597L20.3387 7.29597L20.3384 7.29597C20.2712 7.29586 20.2066 7.29624 20.1372 7.29664C20.015 7.29736 19.8776 7.29817 19.6842 7.29652V7.92823C19.9408 7.98975 20.0605 8.07138 20.1641 8.1746C20.3319 8.34125 20.4621 8.62669 20.4621 9.02413V10.1895C20.4621 10.3775 20.4626 10.5431 20.4756 10.6891C20.4885 10.835 20.5135 10.9573 20.5603 11.0592C20.7253 11.4147 21.0512 11.7079 21.5474 11.9351L21.6696 11.991L21.545 12.0414C21.0926 12.2243 20.7986 12.4323 20.6504 12.6618C20.5033 12.8906 20.4691 13.2128 20.4623 13.6459V14.9162C20.4623 15.3026 20.3171 15.5859 20.1227 15.762C20.0227 15.8586 19.9175 15.9452 19.6846 16.019V16.7031L19.9124 16.7048C20.3845 16.6919 20.7954 16.5598 21.1474 16.2949C21.4925 16.0349 21.6485 15.6565 21.6485 15.1462V13.5722C21.6485 13.1346 21.8036 12.7948 22.0745 12.5581C22.2293 12.4214 22.4094 12.3124 22.6843 12.2309V11.7069C22.3736 11.5977 22.1842 11.4758 22.0467 11.3398C21.7924 11.0952 21.6483 10.7246 21.6483 10.2374V8.88955C21.6483 8.72038 21.64 8.54793 21.5851 8.36855C21.487 8.05362 21.3207 7.80572 21.088 7.62265Z" fill="url(#paint6_linear_537_262)"/>
<path fill-rule="evenodd" clip-rule="evenodd" d="M4.07379 7.29638H4.07384V7.29631H4.68489V7.95179L4.40722 7.94985L4.39964 7.95189C4.18988 8.00823 4.02809 8.08021 3.93294 8.17495C3.76231 8.34476 3.67176 8.633 3.67176 9.02462V10.19C3.67176 10.5626 3.63313 10.8504 3.53682 11.0598C3.37175 11.4151 3.04604 11.7082 2.54963 11.9355L2.42737 11.9915L2.55208 12.0418C3.00505 12.2246 3.29901 12.4329 3.44685 12.6621C3.59563 12.8933 3.6648 13.2185 3.67174 13.6464V14.9169C3.67174 15.2978 3.77733 15.5833 3.97483 15.7625C4.07807 15.8614 4.21679 15.9466 4.44967 16.0194V16.7039L4.18489 16.7056C3.71278 16.6925 3.30206 16.56 2.95004 16.2952C2.60758 16.0373 2.48542 15.6607 2.48542 15.1469V13.5728C2.48542 13.1315 2.29112 12.7928 2.02297 12.5585C1.86468 12.4181 1.59281 12.3105 1.31578 12.2312V11.7077C1.46647 11.6559 1.60886 11.6014 1.73124 11.5438C1.86307 11.4819 1.97616 11.4145 2.05092 11.3406C2.30254 11.098 2.48564 10.7292 2.48564 10.2381V8.89029C2.48564 8.86431 2.48548 8.83854 2.48531 8.81288C2.48435 8.66674 2.48341 8.52394 2.51391 8.36313C2.57554 8.0478 2.77242 7.80955 3.00941 7.6234C3.23136 7.44969 3.47377 7.29422 3.75843 7.29671L3.75875 7.29671L3.75908 7.29671C3.82957 7.29653 3.91785 7.29689 4.01559 7.29743L4.07379 7.29775V7.29638ZM3.95807 7.18054H4.80066V8.06837L4.42215 8.06572C4.22107 8.12043 4.08654 8.18537 4.01461 8.25699C3.87567 8.39526 3.78753 8.64634 3.78753 9.02462V10.19C3.78753 10.5672 3.749 10.8756 3.64194 11.1083L3.64186 11.1085C3.47566 11.4663 3.16402 11.7574 2.71449 11.9847C3.11217 12.1598 3.3919 12.3633 3.54417 12.5994L3.5442 12.5995C3.71024 12.8575 3.78046 13.2085 3.7875 13.645L3.78751 13.6454V14.9169C3.78751 15.2783 3.88756 15.5273 4.05317 15.6773L4.05378 15.6778L4.05438 15.6784C4.14705 15.7673 4.27817 15.849 4.52381 15.9209L4.56543 15.9331V16.8189L4.18367 16.8214L4.18269 16.8214C3.68909 16.8079 3.25413 16.6688 2.88044 16.3877C2.49702 16.099 2.36965 15.679 2.36965 15.1469V13.5728C2.36965 13.169 2.19306 12.8608 1.94663 12.6455L1.94646 12.6454L1.94629 12.6452C1.80172 12.5169 1.53321 12.411 1.24251 12.3308L1.20001 12.3191V11.6246L1.23942 11.6113C1.40266 11.5564 1.55466 11.4989 1.682 11.4391C1.81035 11.3787 1.90919 11.318 1.96973 11.258L1.97002 11.2578L1.97031 11.2575C2.19892 11.0372 2.36988 10.6987 2.36988 10.2381V8.89029C2.36988 8.86557 2.3697 8.84064 2.36952 8.81544C2.36849 8.66928 2.3674 8.51423 2.4002 8.3414L2.40026 8.3411C2.46911 7.98853 2.68854 7.72821 2.93795 7.53232L2.93803 7.53226C3.16166 7.35723 3.43166 7.17821 3.75911 7.18095C3.81568 7.1808 3.88345 7.181 3.95807 7.18136V7.18054Z" fill="url(#paint7_linear_537_262)"/>
<defs>
<linearGradient id="paint0_linear_537_262" x1="12" y1="7.23315" x2="12" y2="16.7056" gradientUnits="userSpaceOnUse">
<stop offset="0.1497" stop-color="#2A4F84"/>
<stop offset="0.3884" stop-color="#294E82"/>
<stop offset="1" stop-color="#172E4E"/>
</linearGradient>
<linearGradient id="paint1_linear_537_262" x1="12" y1="7.23315" x2="12" y2="16.7056" gradientUnits="userSpaceOnUse">
<stop offset="0.1497" stop-color="#2A4F84"/>
<stop offset="0.3884" stop-color="#294E82"/>
<stop offset="1" stop-color="#172E4E"/>
</linearGradient>
<linearGradient id="paint2_linear_537_262" x1="12" y1="7.23315" x2="12" y2="16.7056" gradientUnits="userSpaceOnUse">
<stop offset="0.1497" stop-color="#2A4F84"/>
<stop offset="0.3884" stop-color="#294E82"/>
<stop offset="1" stop-color="#172E4E"/>
</linearGradient>
<linearGradient id="paint3_linear_537_262" x1="12" y1="7.23315" x2="12" y2="16.7056" gradientUnits="userSpaceOnUse">
<stop offset="0.1497" stop-color="#2A4F84"/>
<stop offset="0.3884" stop-color="#294E82"/>
<stop offset="1" stop-color="#172E4E"/>
</linearGradient>
<linearGradient id="paint4_linear_537_262" x1="12" y1="7.23315" x2="12" y2="16.7056" gradientUnits="userSpaceOnUse">
<stop offset="0.1497" stop-color="#2A4F84"/>
<stop offset="0.3884" stop-color="#294E82"/>
<stop offset="1" stop-color="#172E4E"/>
</linearGradient>
<linearGradient id="paint5_linear_537_262" x1="12" y1="7.23315" x2="12" y2="16.7056" gradientUnits="userSpaceOnUse">
<stop offset="0.1497" stop-color="#2A4F84"/>
<stop offset="0.3884" stop-color="#294E82"/>
<stop offset="1" stop-color="#172E4E"/>
</linearGradient>
<linearGradient id="paint6_linear_537_262" x1="21.1842" y1="7.1796" x2="21.1842" y2="16.8205" gradientUnits="userSpaceOnUse">
<stop offset="0.1497" stop-color="#2A4F84"/>
<stop offset="0.3884" stop-color="#294E82"/>
<stop offset="1" stop-color="#172E4E"/>
</linearGradient>
<linearGradient id="paint7_linear_537_262" x1="3.00033" y1="7.18054" x2="3.00033" y2="16.8214" gradientUnits="userSpaceOnUse">
<stop offset="0.1497" stop-color="#2A4F84"/>
<stop offset="0.3884" stop-color="#294E82"/>
<stop offset="1" stop-color="#172E4E"/>
</linearGradient>
</defs>
</svg>
