<svg width="24" height="24" viewBox="0 0 24 24" fill="none" xmlns="http://www.w3.org/2000/svg">
<path fill-rule="evenodd" clip-rule="evenodd" d="M12 2C17.5228 2 22 6.47715 22 12C22 17.5228 17.5228 22 12 22C6.47715 22 2 17.5228 2 12C2 6.47715 6.47715 2 12 2ZM5.83377 18H8.52235V9.93428H5.83377V18ZM6.18948 8.3956C6.45167 8.65778 6.80727 8.80508 7.17806 8.80508C7.37495 8.82741 7.57433 8.8079 7.76316 8.74783C7.95199 8.68776 8.126 8.58848 8.27379 8.4565C8.42159 8.32451 8.53984 8.1628 8.62081 7.98194C8.70178 7.80109 8.74363 7.60517 8.74363 7.40702C8.74363 7.20887 8.70178 7.01295 8.62081 6.8321C8.53984 6.65124 8.42159 6.48953 8.27379 6.35755C8.126 6.22556 7.95199 6.12628 7.76316 6.06621C7.57433 6.00614 7.37495 5.98663 7.17806 6.00896C6.80727 6.00896 6.45167 6.15626 6.18948 6.41844C5.9273 6.68063 5.78 7.03623 5.78 7.40702C5.78 7.77781 5.9273 8.13341 6.18948 8.3956ZM15.5306 18H18.2191V13.3577C18.2191 10.8753 16.9197 9.71919 15.1273 9.71919C14.6385 9.70114 14.154 9.81677 13.726 10.0537C13.2981 10.2905 12.9428 10.6397 12.6986 11.0635V9.92532H10.01V17.991H12.6986V13.5101C12.6877 13.2883 12.7181 13.0665 12.7882 12.8559C12.8908 12.5715 13.0781 12.3254 13.3249 12.1507C13.5717 11.9761 13.866 11.8812 14.1684 11.879C15.1452 11.879 15.5306 12.587 15.5306 13.6714V18Z" fill="white"/>
</svg>
