<svg width="24" height="24" viewBox="0 0 24 24" fill="none" xmlns="http://www.w3.org/2000/svg">
<path d="M20.6604 13.4063C19.8212 13.4113 19.0946 13.6235 18.4852 13.9395C18.2601 13.4706 18.0351 13.0608 17.9977 12.7548C17.9555 12.3995 17.9039 12.1822 17.9555 11.7578C18.007 11.3333 18.2414 10.7311 18.2414 10.6817C18.2367 10.6373 18.1898 10.4201 17.707 10.4152C17.2242 10.4102 16.8069 10.5139 16.76 10.6472C16.7131 10.7804 16.6194 11.0865 16.5584 11.4024C16.474 11.8663 15.5927 13.51 15.0911 14.3738C14.927 14.0381 14.7864 13.742 14.7582 13.505C14.7161 13.1497 14.6645 12.9324 14.7161 12.508C14.7676 12.0835 15.002 11.4813 15.002 11.432C14.9974 11.3876 14.9505 11.1704 14.4677 11.1654C13.9848 11.1605 13.5676 11.2642 13.5207 11.3974C13.4738 11.5307 13.4223 11.8466 13.3191 12.1526C13.2206 12.4586 12.0487 15.203 11.7439 15.9187C11.5892 16.284 11.4533 16.5752 11.3549 16.7726C11.2564 16.9701 11.3502 16.7874 11.3408 16.8072C11.2564 16.975 11.2095 17.0688 11.2095 17.0688V17.0738C11.1439 17.1972 11.0736 17.3156 11.0407 17.3156C11.0173 17.3156 10.9704 16.9849 11.0501 16.5308C11.2235 15.5781 11.6455 14.0925 11.6408 14.0382C11.6408 14.0135 11.7205 13.7519 11.3689 13.6186C11.0267 13.4854 10.9048 13.7075 10.8766 13.7075C10.8485 13.7075 10.8251 13.7865 10.8251 13.7865C10.8251 13.7865 11.2048 12.1132 10.0984 12.1132C9.40463 12.1132 8.4483 12.9079 7.97482 13.6335C7.67479 13.8062 7.03724 14.1715 6.36218 14.5614C6.10435 14.7095 5.83713 14.8675 5.58399 15.0106L5.53247 14.9513C4.19173 13.4458 1.71182 12.3797 1.81496 10.3559C1.85246 9.6205 2.09623 7.68069 6.57792 5.33119C10.2486 3.40619 13.1879 3.93433 13.6988 5.10908C14.4254 6.78729 12.1284 9.90678 8.31244 10.3559C6.85919 10.5287 6.09502 9.9364 5.90286 9.71428C5.70128 9.48229 5.67315 9.47242 5.59815 9.51684C5.47626 9.58595 5.55127 9.79325 5.59815 9.91665C5.71065 10.2276 6.17945 10.7804 6.97639 11.0568C7.67484 11.2987 9.38129 11.432 11.444 10.5929C13.7551 9.65011 15.56 7.03408 15.0302 4.84747C14.4911 2.62138 10.9846 1.89087 7.6702 3.12978C5.69654 3.87016 3.55886 5.02517 2.02122 6.54049C0.192939 8.33716 -0.0977117 9.90678 0.0241739 10.5583C0.450821 12.8831 3.49323 14.3985 4.71208 15.5189C4.65114 15.5534 4.59489 15.588 4.54332 15.6176C3.93389 15.9335 1.61338 17.2119 1.03207 18.5643C0.375767 20.0944 1.13521 21.1952 1.6415 21.3433C3.20726 21.8023 4.81053 20.978 5.67779 19.6206C6.54032 18.2633 6.43723 16.5012 6.03876 15.6966L6.02465 15.667L6.50282 15.3708C6.81227 15.1783 7.11698 15.0006 7.38414 14.8476C7.23418 15.277 7.12631 15.7854 7.0701 16.5258C7.00447 17.3946 7.342 18.5199 7.78735 18.9641C7.98424 19.1566 8.21864 19.1616 8.36396 19.1616C8.87963 19.1616 9.11403 18.7123 9.37187 18.1744C9.69064 17.5179 9.97192 16.7578 9.97192 16.7578C9.97192 16.7578 9.62032 18.816 10.5813 18.816C10.9329 18.816 11.2845 18.3373 11.4439 18.0905V18.0954C11.4439 18.0954 11.4533 18.0806 11.472 18.046C11.4917 18.0154 11.5105 17.9842 11.5283 17.9523V17.9424C11.6689 17.6858 11.983 17.0984 12.4518 16.126C13.0565 14.8723 13.6379 13.3027 13.6379 13.3027C13.6379 13.3027 13.6941 13.6877 13.8676 14.3195C13.9707 14.6947 14.1957 15.1043 14.3691 15.5041C14.2285 15.7114 14.1441 15.8299 14.1441 15.8299L14.1488 15.8349C14.0363 15.9928 13.9097 16.1607 13.7785 16.3284C13.3003 16.9306 12.7284 17.6168 12.6534 17.8142C12.5643 18.0461 12.5831 18.2189 12.7565 18.3572C12.8831 18.4559 13.1081 18.4756 13.3472 18.4559C13.7785 18.4262 14.0785 18.3127 14.2285 18.2436C14.4629 18.1547 14.7301 18.0215 14.988 17.824C15.4568 17.4588 15.7427 16.9405 15.7146 16.2495C15.7005 15.8695 15.5833 15.4943 15.438 15.1389C15.4802 15.0748 15.5224 15.0106 15.5646 14.9415C16.3053 13.8013 16.8772 12.5476 16.8772 12.5476C16.8772 12.5476 16.9335 12.9326 17.1069 13.5644C17.1959 13.8852 17.3741 14.2357 17.5335 14.5812C16.8397 15.1785 16.4037 15.8695 16.2537 16.3236C15.9771 17.1627 16.1928 17.5428 16.6006 17.6316C16.7834 17.6711 17.046 17.5823 17.2428 17.4934C17.4866 17.4095 17.7819 17.2663 18.0539 17.0541C18.5227 16.6889 18.9727 16.1805 18.9493 15.4944C18.9352 15.1785 18.8555 14.8675 18.7477 14.5714C19.3384 14.3147 20.1024 14.1666 21.0729 14.29C23.159 14.5467 23.5715 15.9189 23.4919 16.4914C23.4122 17.064 22.9762 17.3799 22.8309 17.4786C22.6855 17.5724 22.6386 17.607 22.6527 17.676C22.6715 17.7798 22.7371 17.7748 22.8637 17.7551C23.0371 17.7254 23.9606 17.2862 23.9981 16.2299C24.0544 14.8724 22.8309 13.3916 20.6604 13.4063V13.4063ZM4.57145 19.1172C3.88232 19.9119 2.91193 20.213 2.49939 19.9563C2.05404 19.6848 2.22744 18.515 3.076 17.671C3.59167 17.1576 4.26204 16.6838 4.70271 16.3926C4.80115 16.3284 4.95117 16.2347 5.12931 16.1211C5.15743 16.1014 5.17619 16.0915 5.17619 16.0915C5.209 16.0717 5.2465 16.0471 5.28401 16.0224C5.5981 17.2267 5.29807 18.283 4.57145 19.1172V19.1172ZM9.61095 15.509C9.37186 16.126 8.86557 17.7105 8.56086 17.6216C8.29829 17.5476 8.13895 16.3481 8.50924 15.1635C8.69676 14.5662 9.09523 13.8555 9.32963 13.579C9.70939 13.1348 10.1219 12.9867 10.2251 13.1694C10.347 13.4063 9.76096 15.124 9.61095 15.509ZM13.7691 17.6019C13.666 17.6562 13.5722 17.6956 13.53 17.6661C13.4972 17.6463 13.5722 17.5723 13.5722 17.5723C13.5722 17.5723 14.0925 16.9849 14.2988 16.7134C14.416 16.5555 14.5566 16.3729 14.7067 16.1656V16.2248C14.7067 16.9355 14.0598 17.4094 13.7691 17.6019ZM16.9756 16.8319C16.9006 16.7726 16.91 16.59 17.1631 16.0174C17.2616 15.7904 17.4866 15.4103 17.8757 15.05C17.9226 15.1981 17.9507 15.3412 17.946 15.4745C17.9414 16.3629 17.3413 16.6937 16.9756 16.8319Z" fill="#CD6799"/>
</svg>
