<svg width="24" height="24" viewBox="0 0 24 24" fill="none" xmlns="http://www.w3.org/2000/svg">
<path fill-rule="evenodd" clip-rule="evenodd" d="M12 2C17.5228 2 22 6.47715 22 12C22 17.5228 17.5228 22 12 22C6.47715 22 2 17.5228 2 12C2 6.47715 6.47715 2 12 2ZM15.0269 5.38456C15.1352 5.18999 15.266 5 15.5675 5H17.6073C17.7289 5 17.8244 5.04589 17.8758 5.12895C17.929 5.21522 17.9276 5.32903 17.8716 5.44054L13.4011 13.345C13.3983 13.3492 13.3983 13.3542 13.4011 13.3583L16.2476 18.559C16.3041 18.671 16.3054 18.7848 16.2517 18.871C16.2003 18.9541 16.1054 19 15.9837 19H13.9669C13.6576 19 13.5029 18.7944 13.4029 18.6154C13.4029 18.6154 10.5412 13.3657 10.5339 13.3519C10.6771 13.0986 15.0269 5.38456 15.0269 5.38456ZM6.80961 7.89104C6.86101 7.80752 6.96334 7.76484 7.08495 7.76484H9.10409C9.41385 7.76484 9.56574 7.96446 9.66624 8.14343C9.66624 8.14343 11.0461 10.5508 11.0544 10.5641C10.9727 10.7082 8.87465 14.4188 8.87465 14.4188C8.77139 14.6051 8.62592 14.8089 8.32397 14.8089H6.30483C6.18322 14.8089 6.09236 14.7543 6.04096 14.6712C5.98773 14.585 5.98498 14.473 6.04096 14.3615L8.1863 10.5756C8.1886 10.5715 8.1886 10.5687 8.1863 10.5641L6.82108 8.2008C6.76464 8.08837 6.75638 7.97731 6.80961 7.89104Z" fill="white"/>
</svg>
